# xmcd CD database file
#
# Track frame offsets:
#	150
#	25812
#	49720
#	70455
#	87950
#	114320
#	135990
#	164230
#	186275
#	219365
#	232590
#
# Disc length: 3445 seconds
#
# Revision: 1
# Processed by: cddbd v1.5.2PL0 Copyright (c) Steve Scherf et al.
# Submitted via: CDex 1.70beta2
#
DISCID=8f0d730b
DTITLE=Carrie Smith - june night
DYEAR=1992
DGENRE=Blues
TTITLE0=June night
TTITLE1=Days like that again
TTITLE2=Don't look under the bed
TTITLE3=Singing the blues
TTITLE4=Mood indigo
TTITLE5=See see rider
TTITLE6=She's funny that way
TTITLE7=Smokestack lighting
TTITLE8=It makes my love come down
TTITLE9=If you where mine
TTITLE10=Credit card blues
EXTD=YEAR: 1992
EXTT0=
EXTT1=
EXTT2=
EXTT3=
EXTT4=
EXTT5=
EXTT6=
EXTT7=
EXTT8=
EXTT9=
EXTT10=
PLAYORDER=
